<svg xmlns="http://www.w3.org/2000/svg" width="29.2" height="21.9" viewBox="0 0 29.2 21.9">
  <defs>
    <style>
      .cls-1 {
        fill: #fff;
      }
    </style>
  </defs>
  <path id="icon-btn-mail" class="cls-1" d="M3.65,2.737a.915.915,0,0,0-.912.912V4.91l9.838,8.076a3.19,3.19,0,0,0,4.055,0L26.462,4.91V3.65a.915.915,0,0,0-.912-.912H3.65ZM2.737,8.452v9.8a.915.915,0,0,0,.912.912h21.9a.915.915,0,0,0,.912-.912v-9.8l-8.1,6.65a5.931,5.931,0,0,1-7.528,0ZM0,3.65A3.653,3.653,0,0,1,3.65,0h21.9A3.653,3.653,0,0,1,29.2,3.65v14.6a3.653,3.653,0,0,1-3.65,3.65H3.65A3.653,3.653,0,0,1,0,18.25Z"/>
</svg>
